<?xml version="1.0" encoding="utf-8"?>
<!-- Generator: Adobe Illustrator 16.0.0, SVG Export Plug-In . SVG Version: 6.00 Build 0)  -->
<!DOCTYPE svg PUBLIC "-//W3C//DTD SVG 1.1//EN" "http://www.w3.org/Graphics/SVG/1.1/DTD/svg11.dtd">
<svg version="1.1" id="Layer_1" xmlns="http://www.w3.org/2000/svg" xmlns:xlink="http://www.w3.org/1999/xlink" x="0px" y="0px"
	 width="481px" height="480px" viewBox="0 0 481 480" enable-background="new 0 0 481 480" xml:space="preserve">
<rect fill="#5FF1D0" width="481" height="480"/>
<path fill="#0A192F" d="M351.699,384.319v33.715c0,0.766-0.758,1.15-1.524,1.15H40.524c-0.386,0-1.147-0.385-1.147-1.15v-33.715
	H351.699z"/>
<path fill="#0A192F" d="M122.158,80.027v287.419c108.057,0,216.52,0,324.579,0c0-95.801,0-191.612,0-287.419
	C338.678,80.027,230.216,80.027,122.158,80.027z M429.111,351.733c-96.578,0-192.762,0-289.324,0V95.741
	c96.562,0,192.746,0,289.324,0C429.111,181.198,429.111,266.66,429.111,351.733z"/>
<rect x="165.457" y="140.193" fill="#0A192F" width="43.688" height="43.701"/>
<rect x="214.887" y="169.329" fill="#0A192F" width="43.685" height="43.306"/>
<rect x="264.711" y="198.07" fill="#0A192F" width="43.307" height="43.305"/>
<rect x="314.143" y="226.812" fill="#0A192F" width="43.305" height="43.689"/>
<rect x="394.622" y="319.543" fill="#0A192F" width="24.916" height="24.914"/>
<rect x="362.821" y="319.543" fill="#0A192F" width="24.902" height="24.914"/>
<rect x="331.383" y="319.543" fill="#0A192F" width="24.532" height="24.914"/>
<path fill="#0A192F" d="M77.701,80.027c-21.085,0-38.324,17.256-38.324,37.942v211.541c0,21.078,17.239,37.936,38.324,37.936h44.457
	V80.027H77.701z M97.619,128.327c6.129,0,11.501,4.974,11.501,11.491c0,6.128-5.372,11.108-11.501,11.108
	c-6.507,0-11.493-4.98-11.493-11.108C86.125,133.301,91.112,128.327,97.619,128.327z M97.619,163.954
	c6.129,0,11.501,5.376,11.501,11.504c0,6.505-5.372,11.491-11.501,11.491c-6.507,0-11.493-4.986-11.493-11.491
	C86.125,169.328,91.112,163.954,97.619,163.954z M60.822,128.327c6.147,0,11.5,4.974,11.5,11.491c0,6.128-5.353,11.108-11.5,11.108
	c-6.502,0-11.481-4.98-11.481-11.108C49.34,133.301,54.32,128.327,60.822,128.327z M60.822,163.954c6.147,0,11.5,5.376,11.5,11.504
	c0,6.505-5.353,11.491-11.5,11.491c-6.502,0-11.481-4.986-11.481-11.491C49.34,169.328,54.32,163.954,60.822,163.954z
	 M60.822,330.659c-6.502,0-11.481-5.361-11.481-11.492c0-6.518,4.979-11.504,11.481-11.504c6.147,0,11.5,4.986,11.5,11.504
	C72.322,325.298,66.969,330.659,60.822,330.659z M60.822,294.629c-6.502,0-11.481-4.974-11.481-11.486
	c0-6.127,4.979-11.497,11.481-11.497c6.147,0,11.5,5.37,11.5,11.497C72.322,289.655,66.969,294.629,60.822,294.629z M97.619,330.659
	c-6.507,0-11.493-5.361-11.493-11.492c0-6.518,4.986-11.504,11.493-11.504c6.129,0,11.501,4.986,11.501,11.504
	C109.12,325.298,103.748,330.659,97.619,330.659z M97.619,294.629c-6.507,0-11.493-4.974-11.493-11.486
	c0-6.127,4.986-11.497,11.493-11.497c6.129,0,11.501,5.37,11.501,11.497C109.12,289.655,103.748,294.629,97.619,294.629z
	 M111.418,261.681H46.652v-64.776h64.767V261.681z"/>
<path fill="#0A192F" d="M58.148,208.406v42.158H100.3v-42.158H58.148z M93.023,243.289H65.439v-27.6h27.584V243.289z"/>
<path fill="#0A192F" d="M400.076,393.128l-47.521-8.809v17.619v17.246l47.521-8.438l47.133-8.808L400.076,393.128z M426.382,405.006
	v-3.067v-3.06l8.433,1.53l8.432,1.529l-8.432,1.539L426.382,405.006z"/>
<rect x="308.807" y="385.428" fill="#5FF1D0" width="16.048" height="32.201"/>
<rect x="326.139" y="380.935" fill="#5FF1D0" width="0.748" height="45.146"/>
<rect x="306.882" y="380.935" fill="#5FF1D0" width="0.749" height="45.146"/>
</svg>
